<?xml version="1.0" standalone="no"?>
<!DOCTYPE svg PUBLIC "-//W3C//DTD SVG 20010904//EN"
 "http://www.w3.org/TR/2001/REC-SVG-20010904/DTD/svg10.dtd">
<svg version="1.0" xmlns="http://www.w3.org/2000/svg"
 width="407.000000pt" height="372.000000pt" viewBox="0 0 407.000000 372.000000"
 preserveAspectRatio="xMidYMid meet">

<g transform="translate(0.000000,372.000000) scale(0.100000,-0.100000)"
fill="#000000" stroke="none">
<path d="M0 1860 l0 -1860 2035 0 2035 0 0 1860 0 1860 -2035 0 -2035 0 0
-1860z m2056 1598 c-3 -17 -13 -39 -21 -48 -8 -9 -15 -24 -15 -33 0 -9 -4 -17
-8 -17 -5 0 -24 -30 -43 -67 -19 -37 -42 -76 -51 -87 -21 -23 -22 -32 -8 -41
6 -4 7 -11 4 -17 -4 -6 -10 -5 -15 3 -6 10 -9 8 -9 -8 0 -13 -3 -22 -7 -22
-20 3 -24 -2 -13 -16 10 -12 10 -15 -3 -15 -27 0 -47 -45 -41 -92 9 -77 9 -91
-2 -95 -6 -2 -14 4 -18 13 -4 12 -2 15 9 10 9 -3 15 0 15 10 0 8 -7 17 -15 20
-10 4 -13 14 -9 33 l5 26 -15 -25 c-18 -30 -20 -44 -5 -34 7 4 10 1 7 -7 -3
-8 -13 -18 -24 -24 -10 -5 -19 -19 -18 -30 3 -57 2 -56 39 -49 29 5 35 3 35
-10 0 -10 5 -14 10 -11 6 4 8 11 5 16 -4 5 -1 9 4 9 18 0 13 -26 -8 -44 -11
-10 -23 -31 -26 -46 -3 -16 -13 -34 -21 -41 -8 -6 -14 -18 -14 -25 0 -8 -3
-14 -7 -14 -5 0 -17 -19 -28 -43 -11 -23 -29 -58 -40 -77 -12 -19 -35 -60 -52
-90 -43 -80 -57 -104 -63 -110 -3 -3 -11 -17 -17 -32 -7 -15 -25 -46 -40 -70
-15 -24 -33 -55 -39 -69 -6 -14 -24 -45 -40 -70 -26 -41 -49 -83 -94 -169 -12
-23 -15 -38 -9 -45 6 -6 62 -9 142 -6 140 3 139 3 169 61 7 14 22 41 34 60 33
54 118 199 149 255 16 28 45 79 65 115 101 179 145 245 148 223 3 -21 -32
-100 -50 -113 -4 -3 -18 -27 -30 -54 -36 -76 -42 -86 -50 -86 -5 0 -8 -11 -8
-24 0 -12 -13 -37 -30 -54 -30 -32 -39 -62 -19 -62 5 0 7 -5 4 -11 -4 -6 -13
-8 -20 -5 -18 7 -39 -37 -28 -60 8 -18 9 -31 3 -84 -2 -24 -2 -24 -10 5 -4 17
-11 38 -15 48 -6 14 -3 16 11 11 16 -5 16 -4 4 5 -18 12 -26 5 -36 -33 -5 -21
-4 -27 5 -22 7 5 11 -1 11 -14 0 -15 -5 -20 -14 -17 -21 8 -39 -19 -32 -47 4
-18 1 -28 -10 -34 -16 -9 -16 -11 1 -33 l17 -24 -6 28 c-5 22 -3 27 14 27 23
0 26 -10 8 -28 -9 -9 -9 -12 1 -12 15 0 -5 -23 -29 -33 -12 -4 -11 -6 3 -6 9
-1 17 -6 17 -12 0 -5 -4 -7 -10 -4 -6 3 -10 -4 -10 -17 0 -13 4 -18 8 -12 4 6
19 10 34 10 15 0 25 -2 23 -5 -3 -2 2 -13 12 -23 9 -11 11 -18 5 -18 -7 0 -12
5 -12 10 0 6 -13 10 -30 10 -20 0 -30 -5 -30 -15 0 -11 12 -15 43 -17 l42 -1
-45 -6 c-31 -5 -50 -2 -62 7 -9 8 -18 9 -22 4 -3 -5 1 -15 9 -22 22 -19 18
-37 -15 -70 -16 -16 -30 -34 -30 -41 0 -6 -13 -31 -30 -56 -37 -55 -39 -90 -6
-99 14 -3 30 -3 36 1 11 7 254 -5 246 -12 -2 -2 -57 -8 -122 -12 -108 -7 -112
-8 -41 -10 44 0 77 -5 77 -11 0 -5 -17 -10 -37 -10 -21 0 -44 -4 -51 -9 -8 -5
8 -6 37 -3 33 3 51 1 51 -6 0 -6 -19 -12 -42 -14 -46 -3 -59 -21 -18 -26 112
-12 122 -32 18 -33 -45 0 -65 -3 -53 -8 29 -11 -85 -21 -170 -15 l-70 6 -23
-37 c-22 -35 -35 -57 -90 -154 -14 -25 -38 -67 -53 -93 -16 -27 -29 -52 -29
-56 -1 -4 -10 -18 -21 -32 l-21 -25 -352 -5 c-193 -3 -352 -4 -354 -4 -2 1 63
111 144 245 81 134 156 260 167 279 12 19 26 38 32 43 5 4 114 7 240 7 127 -1
235 -1 241 -1 12 1 107 152 118 189 5 15 3 22 -6 23 -7 0 -115 0 -240 -1 -126
-1 -228 2 -228 6 0 4 18 37 39 73 22 36 139 239 261 451 216 374 326 565 495
855 44 77 112 195 150 263 70 123 93 149 81 90z m63 -388 c7 -6 25 -37 76
-135 20 -38 42 -75 49 -80 6 -6 12 -17 14 -25 2 -8 14 -31 26 -50 13 -19 26
-45 30 -58 4 -12 11 -22 16 -22 5 0 12 -9 15 -21 4 -12 44 -86 90 -165 46 -79
80 -144 77 -144 -4 0 -2 -4 4 -8 9 -6 32 -44 102 -167 6 -11 31 -55 56 -97 25
-43 46 -80 46 -83 0 -3 11 -23 25 -43 27 -40 33 -82 11 -82 -9 0 -12 8 -9 24
3 14 -5 39 -19 62 -14 22 -27 46 -31 54 -4 8 -11 22 -17 30 -5 8 -29 49 -53
90 -103 174 -157 270 -157 280 0 5 -4 10 -10 10 -5 0 -10 4 -10 9 0 6 -31 62
-70 127 -38 64 -70 118 -70 120 0 3 -154 269 -201 347 -16 27 -26 53 -23 59 4
6 11 3 17 -8 6 -11 13 -21 16 -24z m-168 -73 c-13 -13 -15 1 -4 30 7 17 8 17
11 -1 2 -10 -1 -23 -7 -29z m-61 -106 c-14 -27 -30 -27 -30 0 0 11 4 18 9 14
5 -3 13 0 16 6 12 19 17 1 5 -20z m27 -633 c-3 -8 -6 -5 -6 6 -1 11 2 17 5 13
3 -3 4 -12 1 -19z m-17 -2 c0 -2 -7 -9 -15 -16 -13 -11 -14 -10 -9 4 5 14 24
23 24 12z m256 -118 c32 -57 61 -105 64 -108 3 -3 14 -24 24 -47 11 -24 22
-43 27 -43 4 0 4 -12 0 -27 l-7 -28 -130 -1 -129 0 120 5 c110 6 120 8 123 26
2 17 -106 220 -153 287 -17 25 -19 38 -6 38 5 0 35 -46 67 -102z m-209 -20
c-3 -8 -6 -5 -6 6 -1 11 2 17 5 13 3 -3 4 -12 1 -19z m-54 -70 c4 -14 -20 -58
-32 -58 -6 0 -7 35 -2 63 2 12 29 8 34 -5z m-53 -157 c0 -11 -4 -23 -10 -26
-5 -3 -10 -2 -10 4 0 6 -7 8 -15 5 -10 -4 -15 0 -15 11 0 9 5 13 10 10 6 -3
10 -1 10 4 0 6 7 11 15 11 8 0 15 -9 15 -19z m123 -8 c-18 -2 -48 -2 -65 0
-18 2 -4 4 32 4 36 0 50 -2 33 -4z m590 0 c-7 -2 -19 -2 -25 0 -7 3 -2 5 12 5
14 0 19 -2 13 -5z m-812 -110 c13 -16 12 -17 -3 -4 -10 7 -18 15 -18 17 0 8 8
3 21 -13z m88 -7 c-11 -9 -69 -14 -69 -6 0 6 17 10 37 10 20 0 34 -2 32 -4z
m-1 -33 c-10 -2 -28 -2 -40 0 -13 2 -5 4 17 4 22 1 32 -1 23 -4z m612 -78 c0
-5 14 -36 31 -68 30 -58 32 -87 6 -87 -10 0 -13 8 -10 24 3 16 -8 49 -31 92
-40 75 -48 115 -16 74 11 -14 20 -29 20 -35z m-617 -252 c-13 -2 -33 -2 -45 0
-13 2 -3 4 22 4 25 0 35 -2 23 -4z m817 -103 c0 -5 18 -39 40 -75 22 -36 40
-70 40 -75 0 -6 4 -10 9 -10 5 0 14 -12 20 -27 12 -30 53 -105 61 -113 13 -13
29 -50 22 -50 -6 0 -45 62 -98 155 -6 11 -20 36 -31 56 -12 20 -27 47 -35 60
-7 13 -15 26 -18 29 -6 6 -30 58 -30 66 0 3 5 2 10 -1 6 -3 10 -10 10 -15z
m550 -95 c0 -5 -9 1 -20 15 -11 14 -20 30 -20 35 0 6 9 -1 20 -15 11 -14 20
-29 20 -35z m33 -81 c-9 -24 -20 -15 -19 16 1 26 3 28 13 14 6 -9 9 -22 6 -30z"/>
<path d="M1732 2861 c-8 -4 -10 -15 -6 -26 7 -17 8 -16 16 5 10 27 7 32 -10
21z"/>
<path d="M1790 2821 c0 -12 6 -21 15 -21 8 0 15 4 15 9 0 5 -7 14 -15 21 -13
10 -15 9 -15 -9z"/>
<path d="M1760 2796 c0 -25 4 -36 15 -36 8 0 15 5 15 10 0 6 -5 10 -11 10 -6
0 -9 9 -6 20 3 11 1 23 -4 26 -5 3 -9 -11 -9 -30z"/>
<path d="M1720 2788 c0 -9 -6 -19 -12 -21 -10 -4 -10 -6 0 -6 14 -1 28 26 18
36 -3 4 -6 -1 -6 -9z"/>
<path d="M1635 2709 c-10 -30 -2 -32 12 -3 6 13 7 24 3 24 -5 0 -12 -9 -15
-21z"/>
<path d="M1671 2714 c0 -11 3 -14 6 -6 3 7 2 16 -1 19 -3 4 -6 -2 -5 -13z"/>
<path d="M1760 2714 c0 -8 5 -12 10 -9 6 4 8 11 5 16 -9 14 -15 11 -15 -7z"/>
<path d="M1730 1979 c0 -5 5 -7 10 -4 6 3 10 8 10 11 0 2 -4 4 -10 4 -5 0 -10
-5 -10 -11z"/>
<path d="M1700 1950 c0 -11 2 -20 4 -20 2 0 6 9 9 20 3 11 1 20 -4 20 -5 0 -9
-9 -9 -20z"/>
<path d="M1652 1894 c-7 -8 -8 -14 -3 -14 10 0 25 19 20 25 -2 1 -10 -3 -17
-11z"/>
<path d="M1708 1433 c7 -3 16 -2 19 1 4 3 -2 6 -13 5 -11 0 -14 -3 -6 -6z"/>
<path d="M1758 1373 c18 -2 45 -2 60 0 15 2 0 4 -33 4 -33 0 -45 -2 -27 -4z"/>
<path d="M1658 1353 c7 -3 16 -2 19 1 4 3 -2 6 -13 5 -11 0 -14 -3 -6 -6z"/>
<path d="M991 1308 c-12 -12 -24 -31 -27 -42 -4 -12 -10 -23 -13 -26 -30 -23
-65 -119 -43 -121 4 0 62 -1 130 -2 141 -2 127 -10 194 103 67 113 69 110 -88
110 -124 0 -135 -2 -153 -22z"/>
</g>
</svg>
